<?xml version="1.0" standalone="no"?>
<!DOCTYPE svg PUBLIC "-//W3C//DTD SVG 20010904//EN"
 "http://www.w3.org/TR/2001/REC-SVG-20010904/DTD/svg10.dtd">
<svg version="1.0" xmlns="http://www.w3.org/2000/svg"
 width="625.000000pt" height="625.000000pt" viewBox="0 0 625.000000 625.000000"
 preserveAspectRatio="xMidYMid meet">
<metadata>
Created by potrace 1.14, written by Peter Selinger 2001-2017
</metadata>
<g transform="translate(0.000000,625.000000) scale(0.100000,-0.100000)"
fill="#000000" stroke="none">
<path d="M1500 5990 c0 -5 5 -10 10 -10 6 0 10 5 10 10 0 6 -4 10 -10 10 -5 0
-10 -4 -10 -10z"/>
<path d="M1460 5970 c0 -5 5 -10 10 -10 6 0 10 5 10 10 0 6 -4 10 -10 10 -5 0
-10 -4 -10 -10z"/>
<path d="M1400 5930 c0 -5 -7 -10 -16 -10 -20 0 -44 -24 -44 -44 0 -9 -8 -16
-18 -16 -10 0 -24 -9 -32 -20 -8 -11 -20 -20 -28 -20 -16 0 -62 -45 -62 -60 0
-6 -27 -38 -60 -70 -33 -32 -60 -64 -60 -70 0 -7 -13 -25 -30 -40 -16 -15 -30
-33 -30 -40 0 -6 -18 -29 -40 -50 -22 -21 -40 -45 -40 -52 0 -7 -9 -20 -20
-28 -11 -8 -20 -21 -20 -30 0 -9 -9 -22 -20 -30 -11 -8 -20 -22 -20 -32 0 -10
-4 -18 -10 -18 -5 0 -10 -9 -10 -20 0 -11 -4 -20 -10 -20 -5 0 -10 -7 -10 -16
0 -9 -10 -25 -22 -35 -11 -11 -19 -22 -15 -25 7 -8 57 41 57 56 0 6 23 33 50
60 28 27 50 54 50 60 0 6 27 38 60 70 33 32 60 64 60 70 0 7 14 25 30 40 17
15 30 34 30 42 0 7 9 20 20 28 11 8 20 22 20 32 0 11 7 18 20 18 15 0 20 7 20
25 0 26 78 115 100 115 16 0 100 88 100 105 0 8 5 15 10 15 6 0 10 5 10 10 0
6 -4 10 -10 10 -5 0 -10 -4 -10 -10z"/>
<path d="M5050 5730 c0 -5 5 -10 10 -10 6 0 10 5 10 10 0 6 -4 10 -10 10 -5 0
-10 -4 -10 -10z"/>
<path d="M5070 5680 c0 -13 7 -20 20 -20 13 0 20 7 20 20 0 13 -7 20 -20 20
-13 0 -20 -7 -20 -20z"/>
<path d="M5130 5640 c0 -11 5 -20 10 -20 6 0 10 -8 10 -18 0 -10 9 -24 20 -32
11 -8 20 -20 20 -28 0 -13 23 -42 34 -42 3 0 6 9 6 20 0 11 -4 20 -10 20 -5 0
-10 9 -10 20 0 11 -4 20 -10 20 -5 0 -10 7 -10 15 0 15 -42 65 -55 65 -3 0 -5
-9 -5 -20z"/>
<path d="M5310 5390 c0 -23 4 -30 20 -30 13 0 20 -7 20 -18 0 -10 9 -24 20
-32 11 -8 20 -22 20 -32 0 -10 5 -18 10 -18 18 0 11 35 -10 50 -11 8 -20 21
-20 30 0 9 -9 22 -20 30 -11 8 -20 22 -20 32 0 10 -4 18 -10 18 -5 0 -10 -13
-10 -30z"/>
<path d="M5430 5210 c0 -5 5 -10 10 -10 6 0 10 5 10 10 0 6 -4 10 -10 10 -5 0
-10 -4 -10 -10z"/>
<path d="M5450 5170 c0 -5 5 -10 10 -10 6 0 10 5 10 10 0 6 -4 10 -10 10 -5 0
-10 -4 -10 -10z"/>
<path d="M753 5145 c-7 -8 -13 -21 -13 -29 0 -8 -6 -16 -12 -19 -7 -2 -10 -8
-6 -12 9 -10 38 19 38 39 0 9 5 16 10 16 6 0 10 5 10 10 0 14 -13 12 -27 -5z"/>
<path d="M700 5050 c0 -5 5 -10 10 -10 6 0 10 5 10 10 0 6 -4 10 -10 10 -5 0
-10 -4 -10 -10z"/>
<path d="M5590 4944 c0 -10 31 -36 37 -31 3 3 -2 13 -10 22 -16 15 -27 19 -27
9z"/>
<path d="M5650 4860 c0 -5 5 -10 10 -10 6 0 10 5 10 10 0 6 -4 10 -10 10 -5 0
-10 -4 -10 -10z"/>
<path d="M5670 4820 c0 -5 5 -10 10 -10 6 0 10 5 10 10 0 6 -4 10 -10 10 -5 0
-10 -4 -10 -10z"/>
<path d="M480 4660 c0 -5 5 -10 10 -10 6 0 10 5 10 10 0 6 -4 10 -10 10 -5 0
-10 -4 -10 -10z"/>
<path d="M5750 4660 c0 -5 5 -10 10 -10 6 0 10 5 10 10 0 6 -4 10 -10 10 -5 0
-10 -4 -10 -10z"/>
<path d="M460 4620 c0 -5 5 -10 10 -10 6 0 10 5 10 10 0 6 -4 10 -10 10 -5 0
-10 -4 -10 -10z"/>
<path d="M5770 4620 c0 -5 5 -10 10 -10 6 0 10 5 10 10 0 6 -4 10 -10 10 -5 0
-10 -4 -10 -10z"/>
<path d="M5820 4500 c0 -5 5 -10 10 -10 6 0 10 5 10 10 0 6 -4 10 -10 10 -5 0
-10 -4 -10 -10z"/>
<path d="M5860 4400 c0 -5 5 -10 10 -10 6 0 10 5 10 10 0 6 -4 10 -10 10 -5 0
-10 -4 -10 -10z"/>
<path d="M5940 4220 c0 -16 5 -30 10 -30 6 0 10 -9 10 -20 0 -11 5 -20 10 -20
6 0 10 -13 10 -30 0 -16 5 -30 10 -30 6 0 10 14 10 30 0 17 -4 30 -10 30 -5 0
-10 9 -10 20 0 11 -4 20 -10 20 -5 0 -10 14 -10 30 0 17 -4 30 -10 30 -5 0
-10 -13 -10 -30z"/>
<path d="M1300 4140 c0 -5 -18 -10 -40 -10 -22 0 -40 -4 -40 -10 0 -5 -18 -10
-40 -10 -22 0 -40 -4 -40 -10 0 -5 -9 -10 -20 -10 -11 0 -20 -4 -20 -10 0 -5
-9 -10 -20 -10 -11 0 -20 -4 -20 -10 0 -5 -7 -10 -16 -10 -8 0 -33 -18 -54
-40 -21 -22 -46 -40 -54 -40 -9 0 -16 -7 -16 -16 0 -8 -18 -33 -40 -54 -22
-21 -40 -46 -40 -54 0 -9 -4 -16 -10 -16 -5 0 -10 -9 -10 -20 0 -11 -4 -20
-10 -20 -5 0 -10 -9 -10 -20 0 -11 -4 -20 -10 -20 -5 0 -10 -9 -10 -20 0 -11
-4 -20 -10 -20 -5 0 -10 -16 -10 -35 0 -19 -4 -35 -10 -35 -6 0 -10 -37 -10
-90 0 -53 4 -90 10 -90 6 0 10 23 10 50 0 28 5 50 10 50 6 0 10 23 10 50 0 28
5 50 10 50 6 0 10 11 10 25 0 21 5 25 30 25 23 0 30 -5 30 -19 0 -11 9 -23 20
-26 11 -3 20 -15 20 -26 0 -10 5 -19 10 -19 6 0 10 -13 10 -30 0 -16 5 -30 10
-30 6 0 10 -50 10 -130 0 -80 -4 -130 -10 -130 -5 0 -10 -12 -10 -26 0 -16
-12 -37 -30 -54 -16 -15 -30 -33 -30 -39 0 -17 147 -161 165 -161 8 0 15 -4
15 -10 0 -6 37 -10 90 -10 53 0 90 4 90 10 0 6 37 10 90 10 53 0 90 4 90 10 0
6 23 10 50 10 28 0 50 5 50 10 0 6 9 10 20 10 11 0 20 5 20 10 0 6 -38 10 -95
10 l-95 0 -55 55 -55 55 0 83 c0 71 3 85 20 97 11 8 20 20 20 28 0 18 46 62
65 62 8 0 15 5 15 10 0 6 8 10 18 10 10 0 24 9 32 20 8 11 22 20 32 20 10 0
18 5 18 10 0 6 7 10 16 10 26 0 44 26 44 64 0 20 5 36 10 36 6 0 10 10 10 23
0 12 9 29 20 37 11 8 20 22 20 32 0 11 7 18 20 18 11 0 20 5 20 10 0 6 33 10
80 10 47 0 80 -4 80 -10 0 -5 16 -10 35 -10 19 0 35 -4 35 -10 0 -5 8 -10 18
-10 10 0 24 -9 32 -20 20 -28 30 -25 30 10 0 17 -4 30 -10 30 -5 0 -10 14 -10
30 0 17 -4 30 -10 30 -5 0 -10 17 -10 38 0 26 -6 42 -20 52 -11 8 -20 20 -20
28 0 7 -16 28 -35 48 -19 19 -35 39 -35 44 0 6 -8 10 -18 10 -10 0 -24 9 -32
20 -8 11 -22 20 -32 20 -10 0 -18 5 -18 10 0 6 -9 10 -20 10 -11 0 -20 5 -20
10 0 6 -13 10 -30 10 -16 0 -30 5 -30 10 0 6 -22 10 -50 10 -27 0 -50 5 -50
10 0 6 -37 10 -90 10 -53 0 -90 -4 -90 -10z"/>
<path d="M4750 4140 c0 -5 -18 -10 -40 -10 -22 0 -40 -4 -40 -10 0 -5 -13 -10
-28 -10 -16 0 -34 -8 -42 -20 -8 -11 -25 -20 -38 -20 -14 0 -36 -13 -52 -30
-15 -16 -31 -30 -34 -30 -14 0 -96 -90 -96 -105 0 -8 -4 -15 -10 -15 -5 0 -10
-13 -10 -30 0 -16 -4 -30 -10 -30 -5 0 -10 -13 -10 -30 0 -16 -4 -30 -10 -30
-6 0 -10 -38 -10 -95 0 -57 4 -95 10 -95 6 0 10 -27 10 -60 0 -33 4 -60 10
-60 6 0 10 -18 10 -40 0 -22 5 -40 10 -40 6 0 10 -13 10 -30 0 -16 5 -30 10
-30 6 0 10 -8 10 -18 0 -10 9 -24 20 -32 11 -8 20 -22 20 -32 0 -10 6 -18 13
-18 7 0 19 -9 27 -20 8 -11 21 -20 30 -20 9 0 22 -9 30 -20 8 -11 22 -20 32
-20 10 0 18 -4 18 -10 0 -5 9 -10 20 -10 11 0 20 -4 20 -10 0 -5 9 -10 20 -10
11 0 20 -4 20 -10 0 -5 9 -10 20 -10 11 0 20 -4 20 -10 0 -5 14 -10 30 -10 17
0 30 -4 30 -10 0 -5 18 -10 40 -10 22 0 40 -4 40 -10 0 -6 43 -10 110 -10 67
0 110 -4 110 -10 0 -6 30 -10 70 -10 40 0 70 4 70 10 0 6 7 10 15 10 20 0 185
165 185 185 0 8 5 15 10 15 6 0 10 9 10 20 0 11 5 20 10 20 6 0 10 9 10 20 0
11 5 20 10 20 6 0 10 14 10 30 0 17 5 30 10 30 6 0 10 30 10 70 0 40 4 70 10
70 6 0 10 23 10 50 0 28 -4 50 -10 50 -5 0 -10 20 -10 45 0 25 -4 45 -10 45
-5 0 -10 14 -10 30 0 17 -4 30 -10 30 -5 0 -10 9 -10 20 0 11 -4 20 -10 20 -5
0 -10 9 -10 20 0 11 -4 20 -10 20 -5 0 -10 7 -10 15 0 8 -38 53 -85 100 -47
47 -92 85 -100 85 -8 0 -15 5 -15 10 0 6 -8 10 -18 10 -10 0 -24 9 -32 20 -8
11 -22 20 -32 20 -10 0 -18 5 -18 10 0 6 -13 10 -30 10 -16 0 -30 5 -30 10 0
6 -18 10 -40 10 -22 0 -40 5 -40 10 0 6 -43 10 -110 10 -67 0 -110 -4 -110
-10z m400 -340 c0 -6 26 -10 58 -10 46 0 60 -4 72 -20 8 -11 20 -20 28 -20 18
0 62 -46 62 -65 0 -8 5 -15 10 -15 6 0 10 -20 10 -45 0 -25 5 -45 10 -45 6 0
10 -13 10 -30 0 -16 -4 -30 -10 -30 -5 0 -10 -7 -10 -16 0 -8 -6 -22 -14 -30
-8 -8 -22 -14 -30 -14 -9 0 -16 -4 -16 -10 0 -5 -9 -10 -20 -10 -11 0 -20 -4
-20 -10 0 -6 -33 -10 -80 -10 -47 0 -80 -4 -80 -10 0 -5 -9 -10 -20 -10 -16 0
-20 -7 -20 -30 0 -16 -4 -30 -10 -30 -5 0 -10 -22 -10 -50 0 -27 -4 -50 -10
-50 -5 0 -10 -9 -10 -20 0 -11 -4 -20 -10 -20 -5 0 -10 -9 -10 -20 0 -11 -4
-20 -10 -20 -5 0 -10 -7 -10 -16 0 -20 -24 -44 -44 -44 -9 0 -16 -4 -16 -10 0
-6 -43 -10 -110 -10 -67 0 -110 4 -110 10 0 6 -11 10 -25 10 -29 0 -95 59 -95
85 0 8 -4 15 -10 15 -5 0 -10 9 -10 20 0 11 -4 20 -10 20 -6 0 -10 27 -10 60
0 33 4 60 10 60 6 0 10 9 10 20 0 11 5 20 10 20 6 0 10 7 10 16 0 8 6 22 14
30 8 8 22 14 30 14 9 0 16 5 16 10 0 6 9 10 20 10 11 0 20 5 20 10 0 6 9 10
20 10 11 0 20 5 20 10 0 6 25 10 56 10 57 0 84 14 84 44 0 9 5 16 10 16 6 0
10 24 10 53 0 41 4 56 20 67 11 8 20 22 20 32 0 11 7 18 18 18 10 0 24 9 32
20 8 12 26 20 42 20 15 0 28 5 28 10 0 6 18 10 40 10 22 0 40 -4 40 -10z"/>
<path d="M6060 3880 c0 -5 5 -10 10 -10 6 0 10 5 10 10 0 6 -4 10 -10 10 -5 0
-10 -4 -10 -10z"/>
<path d="M6100 3811 c0 -11 -6 -21 -12 -23 -9 -3 -8 -9 4 -21 24 -25 28 -21
28 23 0 22 -4 40 -10 40 -5 0 -10 -9 -10 -19z"/>
<path d="M6120 3720 c0 -5 5 -10 10 -10 6 0 10 5 10 10 0 6 -4 10 -10 10 -5 0
-10 -4 -10 -10z"/>
<path d="M6140 3669 c0 -19 21 -49 34 -49 3 0 6 9 6 20 0 11 -4 20 -10 20 -5
0 -10 7 -10 15 0 8 -4 15 -10 15 -5 0 -10 -9 -10 -21z"/>
<path d="M6200 3500 c0 -11 5 -20 10 -20 6 0 10 9 10 20 0 11 -4 20 -10 20 -5
0 -10 -9 -10 -20z"/>
<path d="M1870 3430 c0 -5 -18 -10 -40 -10 -48 0 -90 -35 -90 -75 0 -14 -4
-25 -10 -25 -5 0 -10 -17 -10 -38 0 -26 -6 -42 -20 -52 -11 -8 -20 -21 -20
-28 0 -7 -19 -31 -41 -53 -23 -22 -38 -43 -34 -47 4 -4 10 -1 12 6 3 6 13 12
24 12 10 0 19 5 19 10 0 6 8 10 18 10 10 0 24 9 32 20 8 11 21 20 30 20 9 0
22 10 30 21 8 12 25 32 38 45 12 13 22 30 22 39 0 8 5 15 10 15 6 0 10 9 10
20 0 11 5 20 10 20 6 0 10 9 10 20 0 11 5 20 10 20 6 0 10 14 10 30 0 17 -4
30 -10 30 -5 0 -10 -4 -10 -10z"/>
<path d="M1560 3090 c0 -5 5 -10 10 -10 6 0 10 5 10 10 0 6 -4 10 -10 10 -5 0
-10 -4 -10 -10z"/>
<path d="M2910 2750 c0 -6 -27 -10 -60 -10 -33 0 -60 -4 -60 -10 0 -5 -18 -10
-40 -10 -22 0 -40 -4 -40 -10 0 -5 -13 -10 -30 -10 -16 0 -30 -4 -30 -10 0 -5
-9 -10 -20 -10 -11 0 -20 -4 -20 -10 0 -5 -7 -10 -16 -10 -9 0 -29 -13 -44
-30 -15 -16 -35 -30 -44 -30 -9 0 -16 -7 -16 -16 0 -9 -13 -29 -30 -44 -16
-15 -30 -35 -30 -44 0 -9 -4 -16 -10 -16 -5 0 -10 -18 -10 -40 0 -22 -4 -40
-10 -40 -6 0 -10 -48 -10 -125 0 -77 4 -125 10 -125 6 0 10 -18 10 -40 0 -22
5 -40 10 -40 6 0 10 -13 10 -30 0 -16 5 -30 10 -30 6 0 10 -9 10 -20 0 -11 5
-20 10 -20 6 0 10 -8 10 -18 0 -10 9 -24 20 -32 11 -8 20 -22 20 -32 0 -10 5
-18 10 -18 6 0 10 -8 10 -18 0 -10 9 -24 20 -32 11 -8 20 -21 20 -28 0 -8 14
-27 30 -42 17 -15 30 -33 30 -39 0 -17 147 -161 165 -161 8 0 15 -4 15 -10 0
-5 9 -10 20 -10 11 0 20 -4 20 -10 0 -5 9 -10 20 -10 11 0 20 -4 20 -10 0 -5
9 -10 20 -10 11 0 20 -4 20 -10 0 -5 18 -10 40 -10 22 0 40 -4 40 -10 0 -6 45
-10 115 -10 70 0 115 4 115 10 0 6 18 10 40 10 22 0 40 5 40 10 0 6 9 10 20
10 11 0 20 5 20 10 0 6 9 10 20 10 11 0 20 5 20 10 0 6 9 10 20 10 11 0 20 5
20 10 0 6 7 10 15 10 17 0 145 124 145 141 0 6 18 28 40 49 22 21 40 45 40 52
0 7 9 20 20 28 11 8 20 22 20 32 0 10 5 18 10 18 6 0 10 8 10 18 0 10 9 24 20
32 11 8 20 22 20 32 0 10 5 18 10 18 6 0 10 14 10 30 0 17 5 30 10 30 6 0 10
9 10 20 0 11 5 20 10 20 6 0 10 18 10 40 0 22 5 40 10 40 6 0 10 48 10 125 0
77 -4 125 -10 125 -5 0 -10 14 -10 30 0 17 -4 30 -10 30 -5 0 -10 9 -10 20 0
11 -4 20 -10 20 -5 0 -10 7 -10 16 0 9 -13 29 -30 44 -16 15 -30 35 -30 44 0
9 -8 16 -18 16 -10 0 -24 9 -32 20 -8 11 -22 20 -32 20 -10 0 -18 5 -18 10 0
6 -9 10 -20 10 -11 0 -20 5 -20 10 0 6 -13 10 -30 10 -16 0 -30 5 -30 10 0 6
-18 10 -40 10 -22 0 -40 5 -40 10 0 6 -30 10 -70 10 -40 0 -70 4 -70 10 0 6
-75 10 -205 10 -130 0 -205 -4 -205 -10z m695 -365 c19 -19 35 -39 35 -45 0
-5 5 -10 10 -10 6 0 10 -27 10 -60 0 -33 -4 -60 -10 -60 -5 0 -10 -9 -10 -20
0 -11 -4 -20 -10 -20 -5 0 -10 -7 -10 -16 0 -9 -13 -29 -30 -44 -16 -15 -30
-34 -30 -42 0 -7 -9 -20 -20 -28 -11 -8 -20 -21 -20 -30 0 -9 -9 -22 -20 -30
-11 -8 -20 -20 -20 -27 0 -8 -25 -38 -55 -68 -53 -53 -56 -55 -110 -55 -30 0
-55 -4 -55 -10 0 -6 -52 -10 -135 -10 -83 0 -135 4 -135 10 0 6 -9 10 -20 10
-11 0 -20 5 -20 10 0 6 -11 10 -25 10 -29 0 -115 79 -115 105 0 8 -4 15 -10
15 -6 0 -10 27 -10 60 0 33 4 60 10 60 6 0 10 13 10 28 0 16 8 34 20 42 11 8
20 20 20 28 0 17 45 62 62 62 8 0 20 9 28 20 8 12 26 20 42 20 15 0 28 5 28
10 0 6 18 10 39 10 22 0 41 5 43 11 2 6 32 13 66 16 34 3 62 10 62 14 0 5 9 9
20 9 11 0 20 5 20 10 0 6 9 10 20 10 11 0 20 5 20 10 0 6 18 10 40 10 22 0 40
5 40 10 0 6 38 10 95 10 l96 0 34 -35z m-1051 -37 c8 -7 23 -20 35 -28 19 -13
21 -23 21 -138 0 -94 -3 -127 -14 -138 -20 -20 -46 -18 -46 4 0 10 -9 24 -20
32 -11 8 -20 22 -20 32 0 10 -4 18 -10 18 -5 0 -10 18 -10 40 0 22 -4 40 -10
40 -5 0 -10 18 -10 40 0 22 5 40 10 40 6 0 10 9 10 20 0 41 38 63 64 38z"/>
<path d="M2970 1060 c0 -6 -37 -10 -90 -10 -53 0 -90 -4 -90 -10 0 -5 -18 -10
-40 -10 -22 0 -40 -4 -40 -10 0 -5 -18 -10 -40 -10 -22 0 -40 -4 -40 -9 0 -5
-27 -12 -60 -16 -33 -4 -60 -11 -60 -16 0 -5 -18 -9 -40 -9 -22 0 -40 -4 -40
-10 0 -5 -8 -10 -18 -10 -10 0 -24 -9 -32 -20 -8 -11 -22 -20 -32 -20 -27 0
-23 -46 7 -75 18 -19 35 -25 70 -25 25 0 45 -4 45 -10 0 -5 7 -10 16 -10 9 0
26 -10 37 -22 13 -16 21 -19 24 -10 3 6 12 12 22 12 9 0 23 9 31 20 8 11 22
20 32 20 10 0 18 5 18 10 0 6 9 10 20 10 11 0 20 5 20 10 0 6 9 10 20 10 11 0
20 5 20 10 0 6 23 10 50 10 28 0 50 5 50 10 0 6 18 10 40 10 22 0 40 5 40 10
0 6 75 10 205 10 130 0 205 -4 205 -10 0 -5 23 -10 50 -10 28 0 50 -4 50 -10
0 -5 23 -10 50 -10 28 0 50 -4 50 -10 0 -5 14 -10 30 -10 17 0 30 -4 30 -10 0
-5 7 -10 16 -10 9 0 29 -13 44 -30 15 -16 33 -30 40 -30 16 0 40 -26 40 -44 0
-9 8 -16 19 -16 11 0 22 -6 25 -12 5 -10 7 -10 12 0 3 6 17 12 30 12 27 0 114
79 114 104 0 8 6 17 13 20 10 5 10 7 0 12 -7 3 -13 14 -13 25 0 10 -4 19 -10
19 -5 0 -10 9 -10 20 0 13 -7 20 -20 20 -11 0 -20 5 -20 10 0 6 -9 10 -20 10
-11 0 -20 5 -20 10 0 6 -13 10 -30 10 -16 0 -30 4 -30 9 0 6 -31 13 -70 17
-38 3 -70 11 -70 15 0 5 -22 9 -50 9 -27 0 -50 5 -50 10 0 6 -22 10 -50 10
-27 0 -50 5 -50 10 0 6 -33 10 -80 10 -47 0 -80 4 -80 10 0 6 -55 10 -145 10
-90 0 -145 -4 -145 -10z"/>
</g>
</svg>
