<?xml version="1.0" standalone="no"?>
<!DOCTYPE svg PUBLIC "-//W3C//DTD SVG 20010904//EN"
 "http://www.w3.org/TR/2001/REC-SVG-20010904/DTD/svg10.dtd">
<svg version="1.0" xmlns="http://www.w3.org/2000/svg"
 width="300.000000pt" height="300.000000pt" viewBox="0 0 300.000000 300.000000"
 preserveAspectRatio="xMidYMid meet">
<metadata>
Created by potrace 1.14, written by Peter Selinger 2001-2017
</metadata>
<g transform="translate(0.000000,300.000000) scale(0.100000,-0.100000)"
fill="#000000" stroke="none">
<path d="M1418 2665 c-5 -6 -82 -17 -120 -19 -10 0 -18 -3 -18 -6 0 -3 -19 -6
-43 -8 -23 -1 -43 -7 -45 -12 -2 -6 -11 -10 -21 -10 -9 0 -22 -5 -29 -12 -7
-7 -12 -9 -12 -4 0 4 -7 0 -16 -8 -8 -9 -20 -14 -25 -11 -5 4 -9 2 -9 -4 0 -6
-27 -19 -60 -29 -67 -20 -107 -50 -116 -86 l-6 -25 -37 17 c-20 10 -43 18 -51
17 -8 -1 -19 2 -25 6 -16 10 -159 3 -183 -10 -12 -6 -22 -9 -22 -6 0 4 -7 -1
-16 -9 -8 -9 -22 -16 -29 -16 -38 0 -168 -167 -168 -215 0 -8 -3 -15 -7 -15
-16 0 -13 -163 5 -220 3 -10 8 -27 10 -37 9 -43 42 -122 48 -116 4 3 7 -2 7
-12 0 -26 -31 -108 -44 -117 -6 -4 -8 -8 -3 -8 4 0 -1 -17 -12 -38 -10 -20
-21 -46 -23 -57 -1 -11 -6 -22 -10 -25 -4 -3 -9 -15 -11 -25 -4 -22 -32 -90
-47 -117 -6 -10 -10 -22 -10 -27 0 -5 -5 -22 -12 -38 -6 -15 -12 -32 -14 -38
-2 -5 -15 -44 -29 -85 -14 -41 -25 -80 -25 -87 0 -7 -4 -13 -8 -13 -4 0 -8
-10 -9 -22 -1 -12 -7 -33 -12 -47 -6 -14 -12 -35 -14 -46 -1 -11 -6 -26 -11
-33 -4 -7 -5 -16 -2 -19 3 -3 1 -12 -5 -20 -6 -7 -8 -13 -4 -13 4 0 2 -7 -5
-15 -7 -8 -10 -22 -6 -30 3 -8 1 -15 -5 -15 -6 0 -9 -7 -6 -15 4 -8 2 -17 -2
-20 -5 -3 -7 -14 -4 -25 3 -11 1 -20 -3 -20 -5 0 -9 -19 -9 -43 0 -23 -2 -46
-5 -52 -9 -18 -7 -165 3 -165 5 0 3 -8 -4 -17 -12 -14 -12 -16 0 -8 10 6 13 4
9 -6 -3 -8 0 -23 8 -34 8 -10 14 -27 14 -37 0 -10 5 -18 11 -18 5 0 8 -4 5 -8
-3 -5 17 -33 45 -63 27 -29 49 -49 49 -44 0 5 7 -1 16 -13 15 -22 60 -47 77
-44 4 1 7 -2 7 -6 0 -10 51 -16 125 -13 33 1 99 3 147 4 47 1 85 4 83 7 -2 3
47 6 108 7 387 8 476 11 485 17 6 3 13 2 17 -4 4 -6 11 -7 18 -3 6 3 31 6 56
4 126 -6 291 -5 291 2 0 4 8 4 17 -2 10 -5 26 -5 39 -1 12 5 24 6 28 3 3 -3
83 -7 178 -9 95 -2 236 -6 313 -9 77 -3 151 -5 165 -4 14 0 30 0 35 0 6 -1 62
-3 125 -4 116 -4 149 3 193 41 9 8 17 12 17 9 0 -4 22 15 48 41 27 26 47 50
45 55 -2 4 0 7 5 7 12 0 53 76 45 84 -3 3 -1 6 6 6 7 0 9 4 6 10 -3 5 -2 18 4
28 6 10 6 24 1 32 -5 8 -5 19 0 25 10 13 16 67 8 80 -3 6 -5 25 -3 43 1 17 0
32 -4 32 -4 0 -8 12 -9 27 -1 16 -5 39 -8 53 -3 14 -8 36 -9 50 -2 14 -4 26
-5 28 -2 1 -3 5 -4 10 -1 4 -5 13 -9 19 -5 7 -6 13 -2 13 3 0 -1 15 -8 33 -7
17 -12 39 -12 47 1 8 -3 24 -9 35 -6 11 -11 27 -11 35 -1 8 -7 28 -13 43 -7
16 -12 37 -12 48 0 10 -5 19 -12 19 -6 0 -9 3 -5 6 5 5 -10 58 -30 104 -3 8
-8 24 -10 35 -2 10 -7 22 -11 25 -4 3 -8 16 -10 30 -1 13 -8 28 -15 32 -6 4
-8 8 -3 8 5 0 3 7 -4 15 -6 8 -9 19 -5 25 3 5 2 10 -3 10 -9 0 -39 79 -34 93
1 4 -1 7 -6 7 -7 0 -14 15 -42 88 -7 17 -17 32 -23 32 -6 0 -8 3 -4 6 3 3 -2
25 -12 47 -15 34 -16 47 -6 70 6 15 14 25 17 22 5 -5 20 51 16 58 -1 1 4 11
10 23 25 48 40 168 28 239 -6 42 -36 116 -54 138 -8 9 -12 17 -9 17 4 0 -12
20 -36 44 -23 24 -45 41 -49 39 -5 -2 -8 0 -8 4 0 12 -87 54 -125 61 -67 12
-158 6 -215 -15 -14 -5 -30 -9 -36 -9 -14 1 -44 32 -44 45 0 6 -6 11 -14 11
-7 0 -19 6 -25 14 -6 7 -36 21 -67 31 -30 9 -58 24 -61 31 -3 8 -9 12 -13 9
-4 -2 -27 5 -50 16 -24 12 -54 23 -68 25 -14 3 -29 7 -34 10 -4 3 -29 8 -55
11 -27 3 -54 10 -60 15 -7 6 -13 7 -13 2 0 -5 -11 -9 -25 -9 -14 0 -25 4 -25
8 0 4 -7 4 -16 -1 -9 -5 -31 -6 -50 -2 -20 5 -37 3 -44 -4 -8 -8 -13 -8 -19 2
-4 7 -10 10 -13 7z"/>
</g>
</svg>
